<svg width="23" height="23" viewBox="0 0 23 23" fill="none" xmlns="http://www.w3.org/2000/svg">
<path d="M3.76 1H19.4C20.918 1 22.16 2.242 22.16 3.76V19.4C22.16 20.918 20.918 22.16 19.4 22.16H3.76C2.242 22.16 1 20.918 1 19.4V3.76C1 2.242 2.242 1 3.76 1Z" stroke="#2A3170" stroke-width="1.6" stroke-linecap="round" stroke-linejoin="round"/>
<path d="M4.68 3.76H8.36C8.866 3.76 9.28 4.174 9.28 4.68V16.64C9.28 17.146 8.866 17.56 8.36 17.56H4.68C4.174 17.56 3.76 17.146 3.76 16.64V4.68C3.76 4.174 4.174 3.76 4.68 3.76Z" stroke="#2A3170" stroke-width="1.6" stroke-linecap="round" stroke-linejoin="round"/>
<path d="M12.96 3.76H16.64C17.146 3.76 17.56 4.174 17.56 4.68V10.66C17.56 11.166 17.146 11.58 16.64 11.58H12.96C12.454 11.58 12.04 11.166 12.04 10.66V4.68C12.04 4.174 12.454 3.76 12.96 3.76Z" stroke="#2A3170" stroke-width="1.6" stroke-linecap="round" stroke-linejoin="round"/>
</svg>
